<svg width="240" height="240" viewBox="0 0 240 240" fill="none" xmlns="http://www.w3.org/2000/svg">
<g clip-path="url(#clip0_2_2)">
<rect width="240" height="240" fill="#000AFF"/>
<path d="M-37.1901 -42.772L251.376 -11.0352L-4.63827 245.703L-37.1901 -42.772Z" fill="#FFE713"/>
</g>
<defs>
<clipPath id="clip0_2_2">
<path d="M0 70.4C0 45.7577 0 33.4365 4.79571 24.0244C9.01414 15.7453 15.7453 9.01414 24.0244 4.79571C33.4365 0 45.7577 0 70.4 0H169.6C194.242 0 206.563 0 215.976 4.79571C224.255 9.01414 230.986 15.7453 235.204 24.0244C240 33.4365 240 45.7577 240 70.4V169.6C240 194.242 240 206.563 235.204 215.976C230.986 224.255 224.255 230.986 215.976 235.204C206.563 240 194.242 240 169.6 240H70.4C45.7577 240 33.4365 240 24.0244 235.204C15.7453 230.986 9.01414 224.255 4.79571 215.976C0 206.563 0 194.242 0 169.6V70.4Z" fill="white"/>
</clipPath>
</defs>
</svg>
