<?xml version="1.0" standalone="no"?>
<!DOCTYPE svg PUBLIC "-//W3C//DTD SVG 20010904//EN"
 "http://www.w3.org/TR/2001/REC-SVG-20010904/DTD/svg10.dtd">
<svg version="1.0" xmlns="http://www.w3.org/2000/svg"
 width="700.000000pt" height="700.000000pt" viewBox="0 0 700.000000 700.000000"
 preserveAspectRatio="xMidYMid meet">
<metadata>
Created by potrace 1.14, written by Peter Selinger 2001-2017
</metadata>
<g transform="translate(0.000000,700.000000) scale(0.100000,-0.100000)"
fill="#000000" stroke="none">
<path d="M1389 6996 c-2 -2 -52 -6 -110 -10 -350 -20 -562 -88 -774 -250 -178
-138 -317 -318 -406 -531 -17 -40 -58 -207 -64 -263 -4 -31 -9 -68 -11 -82
-16 -97 -19 -496 -19 -2370 0 -1855 3 -2259 19 -2345 2 -11 7 -47 11 -80 30
-255 134 -469 325 -669 194 -203 458 -337 710 -362 30 -3 61 -7 68 -10 49 -15
498 -19 2357 -19 1898 0 2200 3 2385 21 85 8 229 40 308 68 299 104 589 389
714 701 20 52 52 186 64 275 3 25 8 54 10 65 2 11 7 79 11 150 10 167 10 4296
1 4435 -25 354 -81 536 -227 740 -191 267 -465 446 -761 495 -19 3 -42 8 -50
10 -8 2 -51 7 -95 11 -44 4 -93 9 -110 12 -33 6 -4350 14 -4356 8z"/>
</g>
</svg>
